<svg width="15" height="17" viewBox="0 0 15 17" fill="none" xmlns="http://www.w3.org/2000/svg">
<path d="M7.87562 15.6244C9.03813 14.6206 12.5 11.3706 12.5 8.25C12.5 6.92392 11.9732 5.65215 11.0355 4.71447C10.0979 3.77678 8.82608 3.25 7.5 3.25C6.17392 3.25 4.90215 3.77678 3.96447 4.71447C3.02678 5.65215 2.5 6.92392 2.5 8.25C2.5 11.3706 5.96188 14.6206 7.12438 15.6244C7.23267 15.7058 7.3645 15.7498 7.5 15.7498C7.6355 15.7498 7.76733 15.7058 7.87562 15.6244Z" stroke="#99A1AF" stroke-width="1.25" stroke-linecap="round" stroke-linejoin="round"/>
<path d="M7.5 10.125C8.53553 10.125 9.375 9.28553 9.375 8.25C9.375 7.21447 8.53553 6.375 7.5 6.375C6.46447 6.375 5.625 7.21447 5.625 8.25C5.625 9.28553 6.46447 10.125 7.5 10.125Z" stroke="#99A1AF" stroke-width="1.25" stroke-linecap="round" stroke-linejoin="round"/>
</svg>
